<svg width="58" height="58" viewBox="0 0 58 58" fill="none" xmlns="http://www.w3.org/2000/svg">
<path fill-rule="evenodd" clip-rule="evenodd" d="M3.625 14.5V50.75C3.625 51.7114 4.00692 52.6334 4.68674 53.3133C5.36656 53.9931 6.28859 54.375 7.25 54.375H50.75C51.7114 54.375 52.6334 53.9931 53.3133 53.3133C53.9931 52.6334 54.375 51.7114 54.375 50.75V14.5H3.625ZM7.25 3.625C5.32718 3.625 3.48311 4.38884 2.12348 5.74848C0.763837 7.10811 0 8.95218 0 10.875L0 50.75C0 52.6728 0.763837 54.5169 2.12348 55.8765C3.48311 57.2362 5.32718 58 7.25 58H50.75C52.6728 58 54.5169 57.2362 55.8765 55.8765C57.2362 54.5169 58 52.6728 58 50.75V10.875C58 8.95218 57.2362 7.10811 55.8765 5.74848C54.5169 4.38884 52.6728 3.625 50.75 3.625H7.25Z" fill="#5661CB"/>
<path fill-rule="evenodd" clip-rule="evenodd" d="M12.6875 0C13.1682 0 13.6292 0.190959 13.9691 0.530869C14.309 0.870779 14.5 1.3318 14.5 1.8125V3.625C14.5 4.1057 14.309 4.56672 13.9691 4.90663C13.6292 5.24654 13.1682 5.4375 12.6875 5.4375C12.2068 5.4375 11.7458 5.24654 11.4059 4.90663C11.066 4.56672 10.875 4.1057 10.875 3.625V1.8125C10.875 1.3318 11.066 0.870779 11.4059 0.530869C11.7458 0.190959 12.2068 0 12.6875 0V0ZM45.3125 0C45.7932 0 46.2542 0.190959 46.5941 0.530869C46.934 0.870779 47.125 1.3318 47.125 1.8125V3.625C47.125 4.1057 46.934 4.56672 46.5941 4.90663C46.2542 5.24654 45.7932 5.4375 45.3125 5.4375C44.8318 5.4375 44.3708 5.24654 44.0309 4.90663C43.691 4.56672 43.5 4.1057 43.5 3.625V1.8125C43.5 1.3318 43.691 0.870779 44.0309 0.530869C44.3708 0.190959 44.8318 0 45.3125 0V0Z" fill="#5661CB"/>
<path d="M35.7522 22.9546V24.4272L27.2136 43.5718H24.4524L32.9768 25.1069H21.8186V22.9546H35.7522Z" fill="#5661CB"/>
</svg>
