<svg width="12" height="17" viewBox="0 0 12 17" fill="none" xmlns="http://www.w3.org/2000/svg">
<path d="M6 0.705078C7.45717 0.705078 8.85588 1.28952 9.8877 2.33105C10.9195 3.37272 11.5 4.78665 11.5 6.26172L11.4961 6.44727C11.4566 7.38032 11.1252 8.40907 10.6133 9.45605C10.0698 10.5676 9.33999 11.6653 8.60156 12.6396C7.86429 13.6125 7.12593 14.4531 6.57129 15.0508C6.34661 15.2929 6.15103 15.4934 6 15.6475C5.84897 15.4934 5.65339 15.2929 5.42871 15.0508C4.87407 14.4531 4.13571 13.6125 3.39844 12.6396C2.66001 11.6653 1.93022 10.5676 1.38672 9.45605C0.840655 8.33919 0.500035 7.24304 0.5 6.26172L0.506836 5.98535C0.57449 4.61096 1.14506 3.30752 2.1123 2.33105C3.14412 1.28952 4.54283 0.705078 6 0.705078ZM6 2.7334C5.07022 2.7334 4.17945 3.10637 3.52344 3.76855C2.86765 4.43057 2.5 5.32752 2.5 6.26172C2.50004 7.19591 2.86762 8.09289 3.52344 8.75488C4.13844 9.37565 4.95982 9.74176 5.82617 9.78516L6 9.79004C6.92975 9.79004 7.82056 9.41704 8.47656 8.75488C9.13238 8.09289 9.49996 7.19591 9.5 6.26172C9.5 5.32752 9.13235 4.43057 8.47656 3.76855C7.86155 3.14775 7.04021 2.78069 6.17383 2.7373L6 2.7334Z" stroke="#5661CB"/>
</svg>
