<svg width="17" height="17" viewBox="0 0 17 17" fill="none" xmlns="http://www.w3.org/2000/svg">
<path d="M10.4765 16.189C10.3447 16.1538 10.217 16.1044 10.0956 16.0418C7.77575 14.8805 5.82666 13.0791 4.47266 10.845C3.15819 8.61719 2.50907 6.05115 2.60383 3.45735C2.61924 3.13503 2.71626 2.82216 2.88554 2.54883C3.05483 2.2755 3.2907 2.05091 3.57044 1.89667L5.53221 0.781147C5.63206 0.725533 5.74237 0.691879 5.85592 0.68238C5.96948 0.672881 6.08373 0.687752 6.19123 0.72602C6.30207 0.768141 6.40245 0.834353 6.48532 0.92C6.5682 1.00565 6.63154 1.10865 6.67091 1.22176L7.87647 4.67534C7.9207 4.80867 7.92152 4.95287 7.87881 5.0867C7.8361 5.22054 7.75212 5.33696 7.63923 5.41881L6.34854 6.35088C6.51448 7.33335 6.8653 8.27433 7.3819 9.12259C7.88782 9.99387 8.55393 10.7588 9.34416 11.3759L10.816 10.7165C10.9395 10.6615 11.0766 10.6459 11.209 10.6718C11.3415 10.6977 11.4631 10.7638 11.5575 10.8613L14.0194 13.5817C14.1052 13.6699 14.1702 13.7768 14.2094 13.8941C14.2487 14.0114 14.2613 14.1362 14.2462 14.2592C14.2311 14.3821 14.1887 14.5 14.1222 14.604C14.0558 14.708 13.967 14.7954 13.8625 14.8597L11.9389 15.9895C11.7201 16.1188 11.4783 16.203 11.2273 16.2372C10.9764 16.2715 10.7212 16.2551 10.4765 16.189V16.189ZM5.92621 1.4961L3.96444 2.61163C3.80726 2.69764 3.67488 2.82363 3.58033 2.97721C3.48577 3.13078 3.4323 3.30664 3.42516 3.4875C3.33168 5.92022 3.93555 8.32831 5.16379 10.4208C6.43811 12.5228 8.27245 14.2174 10.4556 15.3095C10.6207 15.3926 10.8036 15.4329 10.9879 15.4267C11.1722 15.4206 11.3521 15.3682 11.5115 15.2743L13.4351 14.1444L11.0578 11.5185L9.47635 12.2296C9.41588 12.2566 9.34981 12.2681 9.2839 12.2633C9.218 12.2585 9.15426 12.2374 9.09824 12.2019C8.1152 11.5089 7.29543 10.6043 6.69759 9.55288C6.06126 8.53519 5.65995 7.38504 5.52359 6.18825C5.52292 6.1178 5.54015 6.04836 5.57363 5.98661C5.60711 5.92486 5.65571 5.87287 5.71475 5.83566L7.10344 4.83189L5.92621 1.4961Z" fill="#5661CB"/>
</svg>
