<svg width="50" height="49" viewBox="0 0 50 49" fill="none" xmlns="http://www.w3.org/2000/svg">
<path d="M31.0965 15.7852L19.4888 34.2155" stroke="#5661CB" stroke-width="1.63333" stroke-linecap="round" stroke-linejoin="round"/>
<path d="M19.219 21.1421C18.0857 20.1424 18.0857 18.5217 19.219 17.522V17.522C20.3522 16.5224 22.1897 16.5223 23.3229 17.522V17.522C24.4562 18.5217 24.4562 20.1424 23.3229 21.1421V21.1421C22.1896 22.1417 20.3522 22.1417 19.219 21.1421V21.1421Z" stroke="#5661CB" stroke-width="1.63333" stroke-linecap="round" stroke-linejoin="round"/>
<path d="M27.3445 32.478C26.2112 31.4783 26.2112 29.8576 27.3445 28.8579V28.8579C28.4777 27.8583 30.3151 27.8583 31.4484 28.8579V28.8579C32.5817 29.8576 32.5817 31.4783 31.4484 32.478V32.478C30.3151 33.4777 28.4777 33.4777 27.3445 32.478V32.478Z" stroke="#5661CB" stroke-width="1.63333" stroke-linecap="round" stroke-linejoin="round"/>
</svg>
